<svg version="1.0" xmlns="http://www.w3.org/2000/svg" viewBox="0 0 108 108"><path d="M51.5 29.9c-6 2.2-13.9 5-17.5 6.3l-6.5 2.3v19.8C27.5 84.2 25 82 54.2 82h21.9l2.4-2.5C81 77.1 81 76.8 81 60s0-17.1-2.5-19.5C76.7 38.7 75 38 72 38h-4v-4.4c0-3.5-.5-4.8-2.2-6-1.2-.9-2.5-1.6-2.8-1.6-.3 0-5.4 1.8-11.5 3.9zm13.9.3c.9 1.2 1.6 3.5 1.6 5V38H51.3c-8.6 0-15.4-.2-15.2-.4.7-.7 25.2-9.5 26.6-9.5.6-.1 1.9.9 2.7 2.1zm12 11.4c.9.9 1.6 3.2 1.6 5.5V51h-6.4c-8.5 0-9.6 1.1-9.6 9.5 0 8 1.7 9.5 10.2 9.5H79v3.4c0 6.4-.6 6.6-25 6.6-18.5 0-22.1-.2-23.4-1.6-1.3-1.3-1.6-4.6-1.6-20V40h23.4c20 0 23.7.2 25 1.6zM79 60.5V68h-5.7c-3.2 0-6.4-.4-7.2-.9-1.8-1.1-2.6-9.3-1.2-12 1-1.8 2-2.1 7.6-2.1H79v7.5z" stroke="#000" stroke-width="1.1"/></svg>